HIERARCHY
ROOT Hips
{
	OFFSET 0.00000 0.00000 0.00000
	CHANNELS 6 Xposition Yposition Zposition Zrotation Yrotation Xrotation 
	JOINT LHipJoint
	{
		OFFSET 0 0 0
		CHANNELS 3 Zrotation Yrotation Xrotation
		JOINT LeftUpLeg
		{
			OFFSET 1.57358 -1.76629 0.73362
			CHANNELS 3 Zrotation Yrotation Xrotation
			JOINT LeftLeg
			{
				OFFSET 2.40600 -6.61045 0.00000
				CHANNELS 3 Zrotation Yrotation Xrotation
				JOINT LeftFoot
				{
					OFFSET 2.66168 -7.31291 0.00000
					CHANNELS 3 Zrotation Yrotation Xrotation
					JOINT LeftToeBase
					{
						OFFSET 0.20870 -0.57341 2.12506
						CHANNELS 3 Zrotation Yrotation Xrotation
						End Site
						{
							OFFSET 0.00000 -0.00000 1.10557
						}
					}
				}
			}
		}
	}
	JOINT RHipJoint
	{
		OFFSET 0 0 0
		CHANNELS 3 Zrotation Yrotation Xrotation
		JOINT RightUpLeg
		{
			OFFSET -1.49299 -1.76629 0.73362
			CHANNELS 3 Zrotation Yrotation Xrotation
			JOINT RightLeg
			{
				OFFSET -2.43663 -6.69460 0.00000
				CHANNELS 3 Zrotation Yrotation Xrotation
				JOINT RightFoot
				{
					OFFSET -2.62959 -7.22474 0.00000
					CHANNELS 3 Zrotation Yrotation Xrotation
					JOINT RightToeBase
					{
						OFFSET -0.25784 -0.70841 2.21862
						CHANNELS 3 Zrotation Yrotation Xrotation
						End Site
						{
							OFFSET -0.00000 -0.00000 1.16452
						}
					}
				}
			}
		}
	}
	JOINT LowerBack
	{
		OFFSET 0 0 0
		CHANNELS 3 Zrotation Yrotation Xrotation
		JOINT Spine
		{
			OFFSET -0.00034 2.12399 -0.25450
			CHANNELS 3 Zrotation Yrotation Xrotation
			JOINT Spine1
			{
				OFFSET 0.05594 2.14379 -0.03318
				CHANNELS 3 Zrotation Yrotation Xrotation
				JOINT Neck
				{
					OFFSET 0 0 0
					CHANNELS 3 Zrotation Yrotation Xrotation
					JOINT Neck1
					{
						OFFSET -0.09835 1.62725 0.24211
						CHANNELS 3 Zrotation Yrotation Xrotation
						JOINT Head
						{
							OFFSET 0.10849 1.66041 -0.22648
							CHANNELS 3 Zrotation Yrotation Xrotation
							End Site
							{
								OFFSET 0.04385 1.68267 -0.10541
							}
						}
					}
				}
				JOINT LeftShoulder
				{
					OFFSET 0 0 0
					CHANNELS 3 Zrotation Yrotation Xrotation
					JOINT LeftArm
					{
						OFFSET 3.29108 0.79398 -0.68179
						CHANNELS 3 Zrotation Yrotation Xrotation
						JOINT LeftForeArm
						{
							OFFSET 5.15310 -0.00000 -0.00000
							CHANNELS 3 Zrotation Yrotation Xrotation
							JOINT LeftHand
							{
								OFFSET 3.75138 -0.00000 -0.00000
								CHANNELS 3 Zrotation Yrotation Xrotation
								JOINT LeftFingerBase
								{
									OFFSET 0 0 0
									CHANNELS 3 Zrotation Yrotation Xrotation
									JOINT LeftHandIndex1
									{
										OFFSET 0.52917 -0.00000 0.00000
										CHANNELS 3 Zrotation Yrotation Xrotation
										End Site
										{
											OFFSET 0.42663 -0.00000 0.00000
										}
									}
								}
								JOINT LThumb
								{
									OFFSET 0 0 0
									CHANNELS 3 Zrotation Yrotation Xrotation
									End Site
									{
										OFFSET 0.43315 -0.00000 0.43315
									}
								}
							}
						}
					}
				}
				JOINT RightShoulder
				{
					OFFSET 0 0 0
					CHANNELS 3 Zrotation Yrotation Xrotation
					JOINT RightArm
					{
						OFFSET -3.07414 1.06285 -0.44338
						CHANNELS 3 Zrotation Yrotation Xrotation
						JOINT RightForeArm
						{
							OFFSET -5.29613 -0.00000 0.00000
							CHANNELS 3 Zrotation Yrotation Xrotation
							JOINT RightHand
							{
								OFFSET -3.76144 -0.00000 -0.00000
								CHANNELS 3 Zrotation Yrotation Xrotation
								JOINT RightFingerBase
								{
									OFFSET 0 0 0
									CHANNELS 3 Zrotation Yrotation Xrotation
									JOINT RightHandIndex1
									{
										OFFSET -0.74732 -0.00000 0.00000
										CHANNELS 3 Zrotation Yrotation Xrotation
										End Site
										{
											OFFSET -0.60251 -0.00000 0.00000
										}
									}
								}
								JOINT RThumb
								{
									OFFSET 0 0 0
									CHANNELS 3 Zrotation Yrotation Xrotation
									End Site
									{
										OFFSET -0.61171 -0.00000 0.61171
									}
								}
							}
						}
					}
				}
			}
		}
	}
}
MOTION
Frames: 6
Frame Time: .0083333
-8.8551 16.8660 -2.3899 -5.6842 34.8711 -2.4360 0.0000 0.0000 0.0000 -19.9322 -5.7030 -25.5876 11.2924 18.0752 63.7274 1.0550 -5.4291 -18.3627 0.0077 0.5663 1.5560 0.0000 0.0000 0.0000 10.2597 1.3683 -12.5907 -3.0486 -10.7734 31.5193 -0.0487 -9.0989 -13.8068 -1.1485 6.8048 -19.1382 3.2744 0.1775 9.7491 4.4392 0.8690 0.5401 2.6751 0.4229 -4.9366 -7.4228 -1.4976 -16.7645 -0.3194 0.1866 23.0847 1.1596 -0.5656 10.1666 -0.0000 0.0000 0.0000 -91.9853 3.0210 29.3022 19.1927 -29.6574 -5.1258 -0.0000 -0.0000 6.9156 21.2163 21.9551 8.2583 -7.1250 0.0000 -0.0000 -7.9319 53.1917 -1.6063 -0.0000 0.0000 0.0000 83.9949 -8.0846 9.9570 -19.1200 29.5675 -5.0899 0.0000 -0.0000 -0.2700 -28.8639 7.6578 -4.2009 7.1250 -0.0000 -0.0000 -1.4783 -21.2525 -0.8422
-8.8188 16.9039 -2.1882 -5.8260 37.1756 -2.4929 0.0000 0.0000 0.0000 -20.1574 -5.5128 -26.9602 10.8948 17.8832 62.4394 1.1153 -6.3835 -18.8583 0.0134 0.7463 2.0510 0.0000 0.0000 0.0000 10.7087 0.9228 -10.9872 -2.9761 -10.6562 31.1291 0.0352 -10.5770 -14.5065 -1.2796 7.1688 -20.2165 3.0968 0.2063 9.6259 4.4157 0.8809 0.5389 2.7484 0.4336 -4.8711 -7.3868 -1.5700 -16.6721 -0.3693 0.0804 22.9320 1.1215 -0.6105 10.0984 0.0000 -0.0000 0.0000 -91.6767 3.5002 29.6441 19.3833 -29.8921 -5.2205 -0.0000 -0.0000 7.1326 20.4378 20.5554 7.4543 -7.1250 0.0000 -0.0000 -8.2311 51.6067 -1.3469 0.0000 -0.0000 0.0000 83.7976 -8.5238 11.0954 -19.3616 29.8655 -5.2097 0.0000 -0.0000 -0.5856 -28.8989 8.1095 -4.4525 7.1250 -0.0000 -0.0000 -1.4735 -20.7369 -0.8566
-8.7741 16.9400 -1.9945 -5.9463 39.3484 -2.5135 0.0000 0.0000 0.0000 -20.5477 -5.2828 -28.2781 10.4471 17.6537 60.9725 1.1713 -6.7623 -19.3302 0.0231 0.9822 2.6999 0.0000 0.0000 0.0000 11.0630 0.4960 -9.4949 -2.8897 -10.5143 30.6586 0.0739 -11.4757 -15.2407 -1.1685 6.8618 -19.3066 3.0433 0.2273 9.5625 4.3471 0.8972 0.5340 2.7039 0.4428 -4.8405 -7.3114 -1.6108 -16.7070 -0.4268 0.0252 22.9018 1.0814 -0.6332 10.0961 0.0000 -0.0000 0.0000 -91.5031 3.7400 29.1993 19.3311 -29.8281 -5.1945 -0.0000 -0.0000 7.6663 19.3253 19.3899 6.6409 -7.1250 0.0000 -0.0000 -8.9446 50.2214 -1.1593 0.0000 -0.0000 0.0000 83.5164 -8.9063 12.2742 -19.6370 30.2026 -5.3475 0.0000 -0.0000 -0.8204 -29.9220 9.2508 -5.2860 7.1250 -0.0000 -0.0000 -2.1195 -19.3406 -1.2989
-8.7191 16.9763 -1.8198 -6.6273 41.2716 -2.7626 0.0000 0.0000 0.0000 -20.5857 -5.0295 -29.8006 9.9968 17.4081 59.4778 1.2382 -6.7851 -19.8837 0.0243 1.0060 2.7653 0.0000 0.0000 0.0000 11.7824 0.0868 -8.3852 -2.8123 -10.3849 30.2324 0.0616 -11.8412 -15.9778 -0.8586 5.9091 -16.5210 3.5383 0.2988 9.5015 4.3780 1.0513 0.4641 2.4371 0.5096 -4.8762 -7.2214 -1.6766 -16.6423 -0.5238 -0.0711 22.7803 1.0194 -0.6755 10.0438 -0.0000 0.0000 0.0000 -91.5176 3.9222 28.0921 19.1682 -29.6272 -5.1137 -0.0000 -0.0000 8.5343 20.4163 21.5021 7.7690 -7.1250 0.0000 -0.0000 -8.5774 52.5784 -1.6093 -0.0000 0.0000 0.0000 83.2484 -9.1783 12.9064 -19.9751 30.6123 -5.5187 0.0000 -0.0000 -0.9931 -29.6069 9.5729 -5.3984 7.1250 -0.0000 -0.0000 -1.8701 -19.0052 -1.1598
-8.6633 17.0015 -1.6420 -7.3577 43.1705 -3.1354 0.0000 0.0000 0.0000 -20.7988 -4.5921 -31.3129 9.5246 17.1337 57.8874 1.3140 -6.2961 -20.5098 0.0001 -0.0664 -0.1826 0.0000 0.0000 0.0000 12.5585 -0.5779 -7.2987 -2.7440 -10.2686 29.8510 0.0750 -12.2170 -16.3487 -0.7363 5.4820 -15.2887 4.0065 0.3684 9.5184 4.4041 1.2030 0.4347 2.1809 0.5755 -4.9110 -7.2399 -1.7881 -16.9033 -0.4075 -0.2194 22.9032 1.0432 -0.7343 10.1423 -0.0000 0.0000 0.0000 -91.4247 4.0599 27.1439 19.0968 -29.5388 -5.0785 -0.0000 -0.0000 8.9650 24.2795 26.2343 11.2769 -7.1250 0.0000 -0.0000 -6.3948 58.2623 -2.0802 -0.0000 0.0000 0.0000 82.9445 -9.3095 13.6086 -20.3454 31.0562 -5.7084 0.0000 -0.0000 -1.8577 -27.7481 8.9440 -4.6758 7.1250 -0.0000 -0.0000 -0.5935 -19.8963 -0.3561
-8.5985 17.0105 -1.4672 -7.8341 44.8669 -3.3170 0.0000 0.0000 0.0000 -21.4553 -3.9988 -32.8689 9.0336 16.8293 56.2061 1.3587 -5.0718 -20.9536 0.1230 -2.2613 -6.2284 0.0000 0.0000 0.0000 13.0316 -1.4403 -6.3533 -2.6715 -10.1432 29.4417 0.0377 -12.1006 -16.7024 -0.6403 5.1195 -14.2497 4.2763 0.4837 9.3664 4.4581 1.3761 0.5162 2.0631 0.6598 -4.7374 -7.4655 -1.8826 -17.3555 -0.3337 -0.2567 23.0110 1.1003 -0.7656 10.2708 0.0000 0.0000 0.0000 -91.5962 3.8510 26.0016 18.8618 -29.2465 -4.9631 -0.0000 -0.0000 8.9973 20.3457 21.5134 7.7439 -7.1250 0.0000 -0.0000 -8.6523 52.5773 -1.6233 0.0000 0.0000 0.0000 82.4391 -9.4393 14.5653 -20.5745 31.3283 -5.8271 0.0000 -0.0000 -1.8016 -27.3434 9.0222 -4.6360 7.1250 -0.0000 -0.0000 -0.2994 -19.8450 -0.1800
